<?xml version="1.0" encoding="utf-8"?>
<!-- Generator: Adobe Illustrator 23.1.0, SVG Export Plug-In . SVG Version: 6.00 Build 0)  -->
<svg version="1.1" id="Слой_1" xmlns="http://www.w3.org/2000/svg" xmlns:xlink="http://www.w3.org/1999/xlink" x="0px" y="0px"
	 viewBox="0 0 550.1 308" style="enable-background:new 0 0 550.1 308;" xml:space="preserve">
<style type="text/css">
	.st0{fill:#666666;stroke:#000000;stroke-width:6;stroke-miterlimit:10;}
</style>
<path class="st0" d="M3.1,267.3c7.5,6.3,19.2,15.2,35,23c61,30.2,104.7,5.8,201-1c59.4-4.2,134.6-9.5,221,5c22.2,3.7,74.2,13.6,85-6
	c3.4-6.2,1.9-13.6,0-19c-12.6-40.6-50.9-143.5-154-213c-38.3-25.8-75.8-40.4-106-49c-61.5-11.2-97.6,1.8-119,15
	c-38.5,23.8-28.3,48.1-88,108c-30.3,30.4-50.2,41.4-64,74C3.7,228.8,2.6,251.9,3.1,267.3z"/>
<path class="st0" d="M883.6,164.8"/>
</svg>
