<?xml version="1.0" encoding="utf-8"?>
<!-- Generator: Adobe Illustrator 23.1.0, SVG Export Plug-In . SVG Version: 6.00 Build 0)  -->
<svg version="1.1" id="Слой_1" xmlns="http://www.w3.org/2000/svg" xmlns:xlink="http://www.w3.org/1999/xlink" x="0px" y="0px"
	 viewBox="0 0 477.1 360.8" style="enable-background:new 0 0 477.1 360.8;" xml:space="preserve">
<style type="text/css">
	.st0{fill:#B3B3B3;}
	.st1{fill:none;stroke:#000000;stroke-width:5;stroke-miterlimit:10;}
	.st2{fill:#FFFFFF;stroke:#000000;stroke-width:5;stroke-miterlimit:10;}
</style>
<g>
	<g>
		<g id="XMLID_4_">
			<g>
				<path class="st0" d="M192.7,121.6l-5.7,55.7L308.5,245c63.2,37.3,104.4,61.4,116,67.9c6.3,3.6,21.6,11.9,35.1,2.9
					c7-4.7,11.5-12.8,14.4-20.1l-256.3-156c0,0,0,0,0,0c-0.9-0.5-1.7-0.9-2.6-1.4C205.4,132.9,198.1,127.2,192.7,121.6z"/>
				<path class="st0" d="M308.5,245L187,177.2C223.4,198.1,264.3,220.9,308.5,245z"/>
			</g>
			<g>
				<path class="st1" d="M192.7,121.6c5.4,5.6,12.7,11.3,22.4,16.8c0.8,0.5,1.7,0.9,2.6,1.4c0,0,0,0,0,0"/>
				<path class="st1" d="M308.5,245c63.2,37.3,104.4,61.4,116,67.9c6.3,3.6,21.6,11.9,35.1,2.9c7-4.7,11.5-12.8,14.4-20.1
					l-256.3-156"/>
				<path class="st1" d="M308.5,245c-44.3-24.1-85.2-46.9-121.6-67.8"/>
				<line class="st1" x1="187" y1="177.2" x2="192.7" y2="121.6"/>
			</g>
		</g>
	</g>
	<path class="st1" d="M12,69"/>
	<g id="XMLID_2_">
		<g>
			<circle class="st0" cx="242.5" cy="180.4" r="8"/>
		</g>
		<g>
			<circle class="st1" cx="242.5" cy="180.4" r="8"/>
		</g>
	</g>
	<path d="M187,177.2l5.7-55.7c-6.7-6.9-10.7-13.6-13.1-19.2c-5.7-13-3.3-19.7-10-33c-7-13.8-16.8-20.8-34-33
		c-4.7-3.3-33.7-23.5-73-32c-6.6-1.4-15.4-2.9-26-1c-6.6,1.2-18.8,3.4-27,14c-6.1,7.9-6.8,16.3-7,19c0,0-1,12.6,7,26
		C17.3,75.4,84.4,118.6,187,177.2z"/>
	<path class="st1" d="M187,177.2C84.4,118.6,17.3,75.4,9.5,62.4c-8-13.4-7-26-7-26c0.2-2.7,1-11.1,7-19c8.2-10.6,20.4-12.8,27-14
		c10.6-1.9,19.4-0.4,26,1c39.3,8.5,68.3,28.7,73,32c17.2,12.2,27,19.2,34,33c6.7,13.3,4.3,20,10,33c2.5,5.6,6.4,12.3,13.1,19.2"/>
	<path class="st2" d="M88.5,98.4c-14.1-8.2-56.6-31.8-60.9-47.1C27.4,50.8,24,38.5,24,38.5l0,0c0,0,0,0,0,0c0.1-1.3,0.5-5.5,3.6-9.4
		c4.2-5.2,10.5-6.3,13.9-6.9c5.5-0.9,10-0.2,13.4,0.5c15.3,3.2,29.3,11.1,37.6,15.8c16.1,8.9,24.3,13.6,32,19.9
		c8.9,7.3,14.4,11.8,19,20c5.8,10.3,3.2,13.8,10,24c5.9,8.8,11,10.9,11,17c0,5.4-4.1,10.7-8,13C144.9,139.3,129.8,122.3,88.5,98.4z"
		/>
</g>
<g>
	<g>
		<g id="XMLID_1_">
			<g>
				<path class="st0" d="M474,65.1L217.7,221c0,0,0,0,0,0c-0.9,0.5-1.7,0.9-2.6,1.4c-9.8,5.4-17,11.2-22.4,16.8l-5.7-55.6
					l121.6-67.8c63.2-37.3,104.4-61.4,116-67.9c6.3-3.6,21.6-11.9,35.1-2.9C466.6,49.7,471.1,57.7,474,65.1z"/>
				<path class="st0" d="M187,183.6c36.4-20.9,77.3-43.7,121.6-67.8L187,183.6z"/>
			</g>
			<g>
				<path class="st1" d="M192.7,239.2c5.4-5.6,12.7-11.3,22.4-16.8c0.8-0.5,1.7-0.9,2.6-1.4c0,0,0,0,0,0"/>
				<path class="st1" d="M308.5,115.8c63.2-37.3,104.4-61.4,116-67.9c6.3-3.6,21.6-11.9,35.1-2.9c7,4.7,11.5,12.8,14.4,20.1
					L217.7,221"/>
				<path class="st1" d="M308.5,115.8c-44.3,24.1-85.2,46.9-121.6,67.8"/>
				<line class="st1" x1="187" y1="183.6" x2="192.7" y2="239.2"/>
			</g>
		</g>
	</g>
	<path class="st1" d="M12,291.9"/>
	<g id="XMLID_3_">
		<g>
			<circle class="st0" cx="242.5" cy="180.4" r="8"/>
		</g>
		<g>
			<circle class="st1" cx="242.5" cy="180.4" r="8"/>
		</g>
	</g>
	<path d="M187,183.6l5.7,55.6c-6.7,6.9-10.7,13.6-13.1,19.2c-5.7,13-3.3,19.7-10,33c-7,13.8-16.8,20.8-34,33
		c-4.7,3.3-33.7,23.5-73,32c-6.6,1.4-15.4,2.9-26,1c-6.6-1.2-18.8-3.4-27-14c-6.1-7.9-6.8-16.3-7-19c0,0-1-12.6,7-26
		C17.3,285.4,84.4,242.3,187,183.6z"/>
	<path class="st1" d="M187,183.6C84.4,242.3,17.3,285.4,9.5,298.4c-8,13.4-7,26-7,26c0.2,2.7,1,11.1,7,19c8.2,10.6,20.4,12.8,27,14
		c10.6,1.9,19.4,0.4,26-1c39.3-8.5,68.3-28.7,73-32c17.2-12.2,27-19.2,34-33c6.7-13.3,4.3-20,10-33c2.5-5.6,6.4-12.3,13.1-19.2"/>
	<path class="st2" d="M88.5,262.4c-14.1,8.2-56.6,31.8-60.9,47.1c-0.1,0.5-3.6,12.8-3.6,12.8l0,0c0,0,0,0,0,0
		c0.1,1.3,0.5,5.5,3.6,9.4c4.2,5.2,10.5,6.3,13.9,6.9c5.5,0.9,10,0.2,13.4-0.5c15.3-3.2,29.3-11.1,37.6-15.8
		c16.1-8.9,24.3-13.6,32-19.9c8.9-7.3,14.4-11.8,19-20c5.8-10.3,3.2-13.8,10-24c5.9-8.8,11-10.9,11-17c0-5.4-4.1-10.7-8-13
		C144.9,221.6,129.8,238.5,88.5,262.4z"/>
</g>
</svg>
